<?xml version="1.0" encoding="utf-8"?>
<!-- Generator: Adobe Illustrator 24.0.1, SVG Export Plug-In . SVG Version: 6.00 Build 0)  -->
<svg version="1.1" id="Layer_1" xmlns="http://www.w3.org/2000/svg" xmlns:xlink="http://www.w3.org/1999/xlink" x="0px" y="0px"
	 viewBox="0 0 90 80" style="enable-background:new 0 0 90 80;" xml:space="preserve">
<style type="text/css">
	.st0{fill-rule:evenodd;clip-rule:evenodd;fill:url(#SVGID_1_);}
</style>
<linearGradient id="SVGID_1_" gradientUnits="userSpaceOnUse" x1="5.3972" y1="49.355" x2="95.0827" y2="16.7122">
	<stop  offset="5.064346e-04" style="stop-color:#F44A00"/>
	<stop  offset="1" style="stop-color:#FD9F48"/>
</linearGradient>
<path class="st0" d="M5.6,0h24.7h7.2h7.2h7.2h7.2h7.2H89l-1,7.2H65.7l0,0h-7.2l0,0h-7.2l0,0H44l0,0h-7.2l0,0h-7.2l0,0h-25L5.6,0z
	 M3.6,14.4h83.7l-1,7.2H63.9l0,0h-7.2l0,0h-7.2l-0.9,7.2h0.1L47.8,36h-0.1l-5.6,44h-7.2l7.3-58.4H35l0,0h-7.2l0,0H2.6L3.6,14.4z
	 M1.5,28.8H34L33.1,36l0,0l-5.5,44h-7.2l5.5-44.1H0.5L1.5,28.8z M84.2,35.9H62.1L56.6,80h-7.2l6.4-51.2h0.1l0,0h29.4L84.2,35.9z"/>
</svg>
